<?xml version="1.0" encoding="UTF-8"?>
<svg id="Camada_2" data-name="Camada 2" xmlns="http://www.w3.org/2000/svg" viewBox="0 0 21.66 26.27">
  <defs>
    <style>
      .cls-1 {
        fill: #10acf4;
        stroke-width: 0px;
      }
    </style>
  </defs>
  <g id="Camada_1-2" data-name="Camada 1">
    <g>
      <path class="cls-1" d="M21.66,9.34c-2.02,2.02-3.8,3.81-5.58,5.59-1.53,1.53-3.07,3.06-4.59,4.6-.37.38-.68.6-1.16.12C7.03,16.31,3.71,13,.4,9.67c-.04-.04-.04-.13-.09-.34,1.68,0,3.33-.04,4.97.02.8.03,1.05-.19,1.04-1.02-.06-2.45,0-4.91-.04-7.36C6.26.19,6.52-.01,7.26,0c2.42.04,4.83.04,7.25,0,.71-.01.91.22.9.93-.04,2.49.01,4.98-.03,7.47-.01.78.24.98.98.95,1.65-.05,3.3-.02,5.3-.02Z"/>
      <path class="cls-1" d="M10.74,26.25c-3.24,0-6.49-.03-9.73.02-.83.01-1.03-.24-1.01-1.04.04-1.92,0-1.92,1.93-1.92,6.16,0,12.32.02,18.49-.02.86,0,1.09.24,1.06,1.08-.05,1.89-.01,1.89-1.87,1.89-2.95,0-5.91,0-8.86,0Z"/>
    </g>
  </g>
</svg>