<?xml version="1.0" encoding="UTF-8"?>
<svg id="Camada_2" data-name="Camada 2" xmlns="http://www.w3.org/2000/svg" viewBox="0 0 21 26">
  <defs>
    <style>
      .cls-1 {
        fill: red;
        stroke-width: 0px;
      }
    </style>
  </defs>
  <g id="Camada_2-2" data-name="Camada 2">
    <g id="Camada_1-2" data-name="Camada 1-2">
      <path class="cls-1" d="M10.5,0h8.41c1.32,0,2.08,1.29,2.09,3.55,0,6.3,0,12.61,0,18.91,0,2.26-.76,3.54-2.09,3.54-5.6,0-11.21,0-16.81,0-1.34,0-2.09-1.28-2.09-3.55V3.54C0,1.29.76,0,2.09,0c2.8,0,5.61,0,8.41,0ZM1.16,2.38c3.12,4.38,6.23,8.74,9.34,13.11,3.13-4.4,6.24-8.75,9.34-13.11-.28-.69-.65-.71-1.02-.71-4.09,0-8.16,0-12.25,0-1.48,0-2.96,0-4.44,0-.36,0-.71.04-.97.71ZM19.46,24.34c.01-.1.03-.21.04-.32-2.26-3.16-4.53-6.3-6.79-9.46-.59.82-1.13,1.59-1.68,2.36-.47.65-.58.65-1.06-.02-.55-.77-1.11-1.55-1.67-2.34-2.29,3.19-4.54,6.33-6.8,9.47.01.1.02.2.04.3,5.98,0,11.96,0,17.94,0h0ZM1.01,22.53c2.21-3.08,4.34-6.05,6.51-9.07C5.34,10.41,3.2,7.42,1.01,4.35v18.19h0ZM13.47,13.47c2.18,3.03,4.31,6,6.5,9.04V4.36c-2.19,3.08-4.32,6.06-6.5,9.11h0Z"/>
    </g>
  </g>
</svg>